<svg width="288" height="121" viewBox="0 0 288 121" fill="none" xmlns="http://www.w3.org/2000/svg">
<path d="M92.41 47C94.8633 47 96.9967 47.9067 98.81 49.72C100.623 51.5333 101.53 53.6667 101.53 56.12V105.08C101.53 107.853 100.73 110.36 99.13 112.6C97.6367 114.733 95.61 116.12 93.05 116.76C83.13 119.32 72.6233 120.6 61.53 120.6C42.8633 120.6 28.0367 115.373 17.05 104.92C6.17 94.36 0.73 79.5867 0.73 60.6C0.73 41.6133 6.01 26.8933 16.57 16.44C27.13 5.88 42.1167 0.599998 61.53 0.599998C69.4233 0.599998 77.6367 1.29333 86.17 2.67999C88.73 3.10666 90.8633 4.38666 92.57 6.52C94.2767 8.65333 95.13 11.0533 95.13 13.72V21.56C95.13 23.8 94.2233 25.6133 92.41 27C90.7033 28.3867 88.73 28.8667 86.49 28.44C79.0233 26.7333 72.0367 25.88 65.53 25.88C54.4367 25.88 46.2767 28.7067 41.05 34.36C35.8233 39.9067 33.21 48.6533 33.21 60.6C33.21 72.6533 35.7167 81.4533 40.73 87C45.7433 92.5467 53.21 95.32 63.13 95.32C65.1567 95.32 67.3433 95.0533 69.69 94.52C70.65 94.3067 71.13 93.72 71.13 92.76V72.44C71.13 71.48 70.65 71 69.69 71H59.45C56.9967 71 54.8633 70.0933 53.05 68.28C51.2367 66.4667 50.33 64.3333 50.33 61.88V56.12C50.33 53.6667 51.2367 51.5333 53.05 49.72C54.8633 47.9067 56.9967 47 59.45 47H92.41ZM149.624 60.6C149.624 83 157.357 94.2 172.824 94.2C188.29 94.2 196.024 83 196.024 60.6C196.024 38.2 188.29 27 172.824 27C157.357 27 149.624 38.2 149.624 60.6ZM131.864 16.6C141.89 5.93333 155.544 0.599998 172.824 0.599998C190.104 0.599998 203.757 5.93333 213.784 16.6C223.81 27.2667 228.824 41.9333 228.824 60.6C228.824 79.2667 223.81 93.9333 213.784 104.6C203.757 115.267 190.104 120.6 172.824 120.6C155.544 120.6 141.89 115.267 131.864 104.6C121.837 93.9333 116.824 79.2667 116.824 60.6C116.824 41.9333 121.837 27.2667 131.864 16.6ZM278.721 2.2C281.175 2.2 283.255 3.10666 284.961 4.91999C286.775 6.73333 287.575 8.86666 287.361 11.32L283.521 71.48C283.415 74.04 282.401 76.2267 280.481 78.04C278.668 79.7467 276.481 80.6 273.921 80.6H263.361C260.801 80.6 258.615 79.7467 256.801 78.04C254.988 76.2267 253.975 74.04 253.761 71.48L249.921 11.32C249.815 8.86666 250.615 6.73333 252.321 4.91999C254.028 3.10666 256.108 2.2 258.561 2.2H278.721ZM275.521 93.4C277.975 93.4 280.108 94.3067 281.921 96.12C283.735 97.9333 284.641 100.067 284.641 102.52V109.88C284.641 112.333 283.735 114.467 281.921 116.28C280.108 118.093 277.975 119 275.521 119H261.761C259.308 119 257.175 118.093 255.361 116.28C253.548 114.467 252.641 112.333 252.641 109.88V102.52C252.641 100.067 253.548 97.9333 255.361 96.12C257.175 94.3067 259.308 93.4 261.761 93.4H275.521Z" fill="#FAFAED"/>
</svg>
